<svg id="Layer_1" data-name="Layer 1" xmlns="http://www.w3.org/2000/svg" viewBox="0 0 1253.63 827.72"><defs><style>.cls-1{fill:#ff9b20;}.cls-1,.cls-2,.cls-3{stroke:#000;stroke-linecap:round;stroke-linejoin:round;stroke-width:6px;}.cls-2{fill:#f288e9;}.cls-3{fill:#00f8bd;}</style></defs><polygon class="cls-1" points="202.04 708.07 242.22 785.09 1014.13 785.09 665.85 204.07 628.64 268.81 875.99 709.74 202.04 708.07"/><polygon class="cls-2" points="575.43 45 669.2 45 337.67 626.02 828.27 626.02 876.83 709.74 202.04 708.07 575.43 45"/><polygon class="cls-3" points="669.2 45 1055.99 704.72 1014.13 785.09 665.85 204.07 427.53 626.02 337.67 626.02 669.2 45"/><path d="M538.11,763.05h-6.94l-2.77-8.83h-9.76l-2.59,8.83H509.3l10.45-32.36h7.68Zm-14.57-25.43h-.09l-3.28,11.1h6.61Z"/><path d="M549.24,756.58l4.81-14.7h6.34l-7.54,21.17h-7.44l-7.22-21.17h6.52Z"/><path d="M574.67,749c0-1.52-1.2-2.5-3.51-2.5a14.43,14.43,0,0,0-6.38,2l-2.36-4.53a18.11,18.11,0,0,1,9.06-2.59c4.81,0,9.2,2.22,9.2,7.82v13.91h-6v-2c-1.11,1.66-3.51,2.54-5.92,2.54-4.48,0-7.4-3.19-7.4-6.66,0-4,3-6.52,7.68-6.52h4.16c1,0,1.48-.46,1.48-1.25Zm0,6.52v-1.53a2.62,2.62,0,0,1-1.85.47h-2.26c-1.9,0-3,.83-3,2.31s1.16,2.5,3,2.5C572.73,759.22,574.67,758.11,574.67,755.47Z"/><path d="M592.88,763.05h-6V747h-3v-5.08h9Zm-3.28-32.36a3.88,3.88,0,0,1,3.88,3.88,3.86,3.86,0,0,1-7.72,0A3.87,3.87,0,0,1,589.6,730.69Z"/><path d="M604,763.05h-6V730.69h6Z"/><path d="M620.94,749c0-1.52-1.2-2.5-3.51-2.5a14.43,14.43,0,0,0-6.38,2l-2.36-4.53a18.11,18.11,0,0,1,9.06-2.59c4.81,0,9.2,2.22,9.2,7.82v13.91h-6v-2c-1.11,1.66-3.51,2.54-5.91,2.54-4.49,0-7.4-3.19-7.4-6.66,0-4,3-6.52,7.67-6.52h4.17c1,0,1.47-.46,1.47-1.25Zm0,6.52v-1.53a2.59,2.59,0,0,1-1.84.47h-2.27c-1.9,0-3,.83-3,2.31s1.16,2.5,3,2.5C619,759.22,620.94,758.11,620.94,755.47Z"/><path d="M637.91,763.05h-6V730.69h6v10.45c0,1.39-.09,2.86-.09,3.47,1-1.81,3.51-3.29,6.7-3.29,5.83,0,10.27,4.67,10.27,11.15s-4.49,11.14-10.32,11.14a7.62,7.62,0,0,1-6.56-3.24Zm-.14-10.58c0,3.23,2.22,5.82,5.41,5.82s5.41-2.59,5.41-5.82-2.22-5.78-5.41-5.78S637.77,749.18,637.77,752.47Z"/><path d="M665.92,763.05h-6V747h-3v-5.08h9Zm-3.28-32.36a3.88,3.88,0,0,1,3.88,3.88,3.86,3.86,0,0,1-7.72,0A3.87,3.87,0,0,1,662.64,730.69Z"/><path d="M677.06,763.05h-6V730.69h6Z"/><path d="M689.5,763.05h-6V747h-3v-5.08h9Zm-3.28-32.36a3.88,3.88,0,0,1,3.88,3.88,3.86,3.86,0,0,1-7.72,0A3.87,3.87,0,0,1,686.22,730.69Z"/><path d="M702.26,733.83v8h4.58V747h-4.58v9.57c0,1.34,1.06,1.53,2,1.53,1.52,0,2.77-.14,2.77-.14v5.13s-2.91.28-4.67.28c-3,0-6.1-.51-6.1-4.76V747h-3.33v-5.08h3.33v-8Z"/><path d="M717.7,763.05h-1.53l-7.26-21.17h6.71L720.1,757l4.53-15.07h6.52l-8.46,24.5c-1.06,3.1-2.73,4.76-6.61,4.76h-4.16v-5h3a2.21,2.21,0,0,0,2.36-1.66Z"/><path d="M812.36,331.79l3.37,5.63-28.34,16.94L784,348.73Z"/><path d="M816,358.93c2.4,4,1.57,8.41-2.76,11L801,377.19l-3.14-5.26,10.8-6.47a3.49,3.49,0,0,0,1.44-5.14,6,6,0,0,0-4.46-2.67l-12,7.19-3.15-5.26,18.54-11.09,3.08,5.14-.73.44c-.65.39-1.51.79-1.51.79A8.49,8.49,0,0,1,816,358.93Z"/><path d="M833.18,372.86l-7,4.21,2.4,4-4.46,2.66-2.39-4-8.38,5c-1.18.71-.78,1.73-.3,2.54a27.69,27.69,0,0,0,1.58,2.36l-4.5,2.69s-1.76-2.41-2.69-3.95c-1.57-2.63-2.74-5.61,1-7.83l10.16-6.08-1.74-2.91,4.45-2.67,1.74,2.92,7-4.21Z"/><path d="M830.77,409.36l-8.25-13.8a5.13,5.13,0,0,0,3,9.06l2.7,5.8c-5,.72-8.91-1.65-11.38-5.78a11.37,11.37,0,0,1,19.47-11.75c3,5.1,2.49,11.7-5.28,16.35Zm-4.8-16,5,8.3a4.7,4.7,0,0,0,1-6.13A4.83,4.83,0,0,0,826,393.33Z"/><path d="M854.68,424.79,834.76,436.7c-2.92,1.75-6.58,2-9.27-2.53l-4.81-8.06,4.45-2.66,4,6.76c.56.93,1.43,1.84,2.85,1l3.56-2.13a7.92,7.92,0,0,1-6.23-4.08c-3-5-1.52-11.18,4.27-14.64s11.93-1.92,14.93,3.1a7.84,7.84,0,0,1,.64,7.59c.2-.12.52-.42,1.49-1l.85-.51Zm-20.1-1.34c1.67,2.8,4.88,3.47,7.87,1.67s4-4.95,2.3-7.74-4.85-3.42-7.89-1.61S832.94,420.7,834.58,423.45Z"/><path d="M859,443.8l-1.33-2.23c-1.59-2.67-3.58-3.13-6.81-1.2l-8.87,5.3-3.15-5.26,18.54-11.09,3,5.11-2.95,1.76a5.69,5.69,0,0,1,6.08,2.91,6.83,6.83,0,0,1,.71,1.55Z"/><path d="M851.21,461.09l-3.14-5.26,14.08-8.42-1.55-2.59,4.46-2.66,4.69,7.85Zm26.62-19.81a3.94,3.94,0,0,1-1.37,5.43,3.94,3.94,0,0,1-4-6.76A3.94,3.94,0,0,1,877.83,441.28Z"/><path d="M883.48,457l-7.05,4.21,2.4,4-4.45,2.66-2.4-4-8.38,5c-1.17.71-.78,1.73-.3,2.54a27.69,27.69,0,0,0,1.58,2.36l-4.5,2.69s-1.76-2.41-2.68-3.95c-1.58-2.63-2.75-5.61,1-7.83l10.16-6.08-1.74-2.91,4.45-2.67,1.75,2.92,7-4.21Z"/><path d="M866,485.79l-.8-1.34L879.92,467l3.51,5.87L872.58,484.7l15.57-3.93,3.41,5.71-25.89,5.42c-3.26.69-5.59.11-7.63-3.29L855.86,485l4.42-2.64,1.55,2.59a2.25,2.25,0,0,0,2.69,1.2Z"/><path d="M595.48,506.8H584.92V476h10.56c10.08,0,16,6.25,16,15.41S605.56,506.8,595.48,506.8Zm-.22-25.57H591v20.38h4.22c5.64,0,10-3.3,10-10.21S600.9,481.23,595.26,481.23Z"/><path d="M626.2,493.38c0-1.46-1.15-2.38-3.35-2.38a13.68,13.68,0,0,0-6.07,1.89l-2.25-4.31a17.27,17.27,0,0,1,8.63-2.46c4.58,0,8.76,2.11,8.76,7.43V506.8H626.2v-1.89c-1.06,1.58-3.35,2.42-5.64,2.42-4.27,0-7-3-7-6.34,0-3.83,2.82-6.2,7.31-6.2h4c1,0,1.41-.44,1.41-1.19Zm0,6.2v-1.45a2.51,2.51,0,0,1-1.76.44h-2.16c-1.8,0-2.86.79-2.86,2.2s1.1,2.38,2.86,2.38C624.35,503.15,626.2,502.09,626.2,499.58Z"/><path d="M643.84,479v7.65h4.36v4.84h-4.36v9.11c0,1.28,1,1.46,1.89,1.46a25.24,25.24,0,0,0,2.64-.14v4.89s-2.77.26-4.44.26c-2.86,0-5.81-.48-5.81-4.53v-11H635v-4.84h3.17V479Z"/><path d="M663.33,493.38c0-1.46-1.14-2.38-3.34-2.38a13.72,13.72,0,0,0-6.08,1.89l-2.24-4.31a17.27,17.27,0,0,1,8.63-2.46c4.57,0,8.75,2.11,8.75,7.43V506.8h-5.72v-1.89c-1.05,1.58-3.34,2.42-5.63,2.42-4.27,0-7-3-7-6.34,0-3.83,2.81-6.2,7.3-6.2h4c1,0,1.41-.44,1.41-1.19Zm0,6.2v-1.45a2.5,2.5,0,0,1-1.76.44h-2.15c-1.81,0-2.86.79-2.86,2.2s1.1,2.38,2.86,2.38C661.48,503.15,663.33,502.09,663.33,499.58Z"/><path d="M364.6,516.38a8.67,8.67,0,0,0-.93-10.63l3.52-6.09c5.63,5.42,6.15,13.37,2.51,19.66-4.73,8.21-14.4,11.08-22.81,6.23s-10.77-14.66-6-22.87c3.63-6.29,10.77-9.83,18.29-7.67l-3.52,6.1c-3.91-.87-7.53.81-9.67,4.51-3,5.26-1.07,11.07,4.27,14.15S361.57,521.64,364.6,516.38Z"/><path d="M369.15,498.09a11.28,11.28,0,1,1,15.24-4.23A11,11,0,0,1,369.15,498.09Zm3-5.18c2.83,1.63,6.06,1,7.63-1.71s.46-5.79-2.36-7.42-6.07-1-7.61,1.67S369.27,491.25,372.14,492.91Z"/><path d="M378.81,459.15c2.27-3.94,6.42-5.32,10.68-2.86l12,6.89-3,5.18-10.64-6.13a3.4,3.4,0,0,0-5.06,1.22,5.81,5.81,0,0,0-.16,5.06l11.84,6.83-3,5.18L373.2,470l2.92-5.06.71.41c.64.37,1.39.91,1.39.91A8.29,8.29,0,0,1,378.81,459.15Z"/><path d="M414.34,440.83l-3,5.18-13.87-8-3.74,6.5,13.86,8-3,5.19-13.87-8-1.66,2.87L384.71,450l1.65-2.87-5.18-3c-3.58-2.07-3.44-5.17-1.83-8,.8-1.4,2.42-3.65,2.42-3.65l4.74,2.74s-1.11,1.47-1.44,2c-.57,1-.7,1.77.58,2.51l3.7,2.14,6.74-11.68Zm-29.53-13.26a3.85,3.85,0,0,1,5.28-1.42,3.84,3.84,0,0,1-3.84,6.66A3.85,3.85,0,0,1,384.81,427.57Z"/><path d="M422.3,421.68a7.7,7.7,0,0,1-.5,7.31c-2.89,5-9.12,6.53-14.7,3.31S399.68,423,402.57,418a7.65,7.65,0,0,1,6.19-4.18c-.6-.35-2.16-1.14-3.52-1.92l-8.52-4.92,3-5.18,27.9,16.09-3,5.18ZM410.18,427c2.79,1.61,6.12,1,7.71-1.77s.45-5.95-2.33-7.56-6.09-1-7.68,1.79S407.35,425.33,410.18,427Z"/><path d="M432.88,391.09,425,404.68a5,5,0,0,0,6.32-6.82l3.67-5.05c3,3.88,2.82,8.37.47,12.43a11.09,11.09,0,0,1-19.25-11c2.89-5,8.78-7.68,16.43-3.26ZM421.51,402.8l4.71-8.17a4.56,4.56,0,0,0-5.67,2.1A4.69,4.69,0,0,0,421.51,402.8Z"/><path d="M429.62,371.05c2.28-3.94,6.42-5.32,10.68-2.86l12,6.89-3,5.18-10.64-6.14a3.4,3.4,0,0,0-5.06,1.23,5.85,5.85,0,0,0-.16,5.06l11.84,6.83-3,5.18L424,381.89l2.92-5.06.72.41c.63.37,1.38.91,1.38.91A8.29,8.29,0,0,1,429.62,371.05Z"/><path d="M433.3,349.76l6.93,4,2.28-3.95,4.38,2.53-2.27,3.94,8.25,4.76c1.15.67,1.84-.16,2.3-1,.76-1.32,1.26-2.46,1.26-2.46l4.42,2.55s-1.2,2.65-2.08,4.16c-1.49,2.59-3.47,5-7.14,2.89l-10-5.76L440,364.33l-4.39-2.52,1.66-2.87-6.94-4Z"/><path d="M466.44,350.5l-3,5.18-13.87-8-1.47,2.55-4.38-2.53,4.46-7.73Zm-29.53-13.26a3.85,3.85,0,0,1,5.28-1.42,3.84,3.84,0,0,1-3.84,6.65A3.84,3.84,0,0,1,436.91,337.24Z"/><path d="M462.7,328.9c-1.32-.76-2.75-.2-3.9,1.79a14.22,14.22,0,0,0-1.46,6.49l-5.08-.22a18,18,0,0,1,2.27-9.1c2.39-4.15,6.49-6.83,11.31-4.05l12,6.92-3,5.18-1.71-1c.88,1.79.44,4.3-.75,6.37-2.23,3.86-6.43,4.79-9.42,3.07-3.47-2-4.15-5.8-1.8-9.86l2.07-3.59c.5-.87.33-1.5-.35-1.89Zm5.61,3.24-1.31-.76a2.65,2.65,0,0,1-.52,1.83l-1.13,2c-.94,1.63-.77,3,.5,3.74s2.73.24,3.65-1.35C470.58,335.68,470.59,333.45,468.31,332.14Z"/><path d="M483.26,321.33l-3,5.14-27.9-16.09,3-5.14Z"/><path d="M489.44,310.61l-3,5.18-13.87-8-1.47,2.55-4.39-2.53,4.46-7.73Zm-29.52-13.26a3.86,3.86,0,0,1,5.27-1.42,3.84,3.84,0,0,1-3.83,6.66A3.84,3.84,0,0,1,459.92,297.35Z"/><path d="M470.6,285.08l6.93,4,2.28-3.94,4.38,2.53-2.27,3.94,8.25,4.76c1.15.67,1.84-.16,2.3-.95.76-1.32,1.26-2.46,1.26-2.46l4.42,2.55s-1.2,2.65-2.08,4.16c-1.49,2.59-3.47,5-7.14,2.89l-10-5.77-1.65,2.87-4.39-2.53,1.66-2.87-6.94-4Z"/><path d="M503.46,286.3l-.76,1.32-21.86-4.27,3.34-5.78,15.22,3.63-10.74-11.4,3.24-5.62,16.91,19.47c2.15,2.46,2.75,4.72.82,8.07l-2.07,3.59-4.34-2.51,1.47-2.55a2.19,2.19,0,0,0-.26-2.86Z"/></svg>